<svg width="406" height="292" viewBox="0 0 406 292" fill="none" xmlns="http://www.w3.org/2000/svg">
<g clip-path="url(#clip0_161_1239)">
<path d="M94.9998 132C96.2466 104.408 101.224 91.5998 129 80.5C126.846 65.187 114.618 57.7137 76.4998 46C74.5929 80.2555 77.1245 99.2001 94.9998 132Z" fill="white"/>
<path d="M329 46C295.105 56.4244 278.77 62.9337 275.5 81C300.599 92.0178 307.314 103.847 309.5 132.5C329.828 102.348 330.135 82.2776 329 46Z" fill="white"/>
<path d="M94.9998 132C96.2466 104.408 101.224 91.5998 129 80.5C126.846 65.187 114.618 57.7137 76.4998 46C74.5929 80.2555 77.1245 99.2001 94.9998 132Z" stroke="white" stroke-width="3"/>
<path d="M329 46C295.105 56.4244 278.77 62.9337 275.5 81C300.599 92.0178 307.314 103.847 309.5 132.5C329.828 102.348 330.135 82.2776 329 46Z" stroke="white" stroke-width="3"/>
<path d="M190.5 260.5C209.037 261.432 218.637 261.638 222 256.5" stroke="white" stroke-width="3"/>
<path d="M43.5 230.5C36.1757 249.218 25 272 19 274C36.4557 267.361 64.6316 267.201 120.5 268M120.5 268C98.2855 259.868 85.6605 256.814 62.5 257L64 230.5M120.5 268C185.911 292.467 222.311 288.972 287 268M287 268C326.009 266.823 347.178 267.515 383 272.5C371.949 256.872 368.143 247.589 361.5 231M287 268C306.097 259.846 318.575 257.795 342.5 256.5C342.305 246.247 341.944 240.688 341 231" stroke="white" stroke-width="3"/>
<path d="M156.001 231C120.598 305.843 283.604 300.267 249 231" stroke="white" stroke-width="3"/>
<path d="M190.979 230.477C191.794 230.477 192.638 230.441 193.464 230.441C194.058 230.441 194.612 230.368 195.212 230.368C196.066 230.368 196.914 230.405 197.77 230.405C198.815 230.405 199.864 230.514 200.914 230.514C201.433 230.514 201.952 230.514 202.47 230.514C203.184 230.514 203.897 230.416 204.609 230.405C207.257 230.362 209.911 230.332 212.559 230.332C212.628 230.332 212.723 230.37 212.723 230.441C212.723 230.548 212.587 230.521 212.504 230.558C212.431 230.591 212.22 230.55 212.176 230.605C212.161 230.624 211.969 230.66 211.94 230.66C211.849 230.66 211.758 230.66 211.667 230.66C211.528 230.66 211.622 230.774 211.63 230.842C211.637 230.897 211.695 231.03 211.721 231.078C211.764 231.155 211.739 231.284 211.739 231.37C211.739 231.896 211.356 231.898 210.92 231.898C210.662 231.898 210.403 231.898 210.145 231.898C210.008 231.898 209.591 231.793 209.591 232.025C209.591 232.098 209.554 232.175 209.554 232.262C209.554 232.39 209.509 232.364 209.437 232.436C209.171 232.702 208.923 232.736 208.538 232.736C208.176 232.736 207.813 232.736 207.45 232.736C207.172 232.736 207.038 232.864 206.966 233.116C206.886 233.395 206.784 233.438 206.495 233.589C206.33 233.675 206.292 233.719 206.112 233.719C206.003 233.719 205.894 233.719 205.785 233.719C205.295 233.719 204.806 233.662 204.318 233.618C203.967 233.586 203.606 233.61 203.253 233.61C202.846 233.61 202.44 233.573 202.031 233.573C201.357 233.573 200.684 233.573 200.01 233.573C199.631 233.573 199.215 233.596 198.846 233.508C198.338 233.388 197.705 233.482 197.301 233.1C196.967 232.785 196.587 232.626 196.123 232.626C195.903 232.626 195.62 232.649 195.441 232.497C195.356 232.425 195.262 232.368 195.168 232.307C195.092 232.258 195.048 232.176 194.994 232.108C194.966 232.074 195.005 232.013 194.978 231.979C194.925 231.913 194.959 231.851 194.86 231.823C194.748 231.791 194.621 231.752 194.49 231.752C194.087 231.752 193.68 231.789 193.282 231.789C193.086 231.789 192.693 231.861 192.527 231.732C192.381 231.618 192.117 231.522 192.246 231.279C192.339 231.104 192.433 231.06 192.635 231.06C192.865 231.06 193.09 231.151 193.282 231.279C193.44 231.384 193.574 231.534 193.784 231.534C194.106 231.534 194.427 231.534 194.749 231.534C195.071 231.534 195.38 231.506 195.696 231.443C196.085 231.365 196.48 231.388 196.876 231.388C197.549 231.388 199.558 231.338 198.895 231.459C198.789 231.478 198.648 231.448 198.545 231.441C198.196 231.415 197.847 231.395 197.497 231.39C196.731 231.379 195.979 231.346 195.216 231.263C195.17 231.257 194.642 231.227 194.945 231.169C195.298 231.103 195.667 231.12 196.01 231.004C196.099 230.973 195.985 230.958 195.953 230.951C195.747 230.902 195.533 230.874 195.322 230.858C195.011 230.834 194.698 230.84 194.387 230.842C194.169 230.843 193.921 230.82 193.707 230.878C193.474 230.941 194.1 231.059 194.122 231.06C195.444 231.155 196.772 231.215 198.082 231.441C199.401 231.668 200.721 231.86 202.007 232.246C202.029 232.252 202.364 232.35 202.116 232.319C201.763 232.274 201.411 232.221 201.056 232.189C199.971 232.093 198.805 232.024 197.721 232.181C197.59 232.2 197.534 232.227 197.711 232.242C198.192 232.283 198.687 232.268 199.168 232.254C200.036 232.229 200.903 232.156 201.768 232.082C202.244 232.041 202.782 232.038 203.239 231.88C203.539 231.776 203.132 231.711 203.055 231.702C202.577 231.646 202.082 231.647 201.602 231.671C201.145 231.694 200.67 231.736 200.259 231.955C200.139 232.018 199.851 232.184 200.024 232.349C200.185 232.502 200.816 232.673 201.015 232.517C201.08 232.467 200.879 232.423 200.801 232.4C200.413 232.282 200.008 232.203 199.607 232.141C198.785 232.013 197.976 232.047 197.151 232.027C196.974 232.023 196.854 231.761 196.71 231.671C196.617 231.613 196.319 231.447 196.208 231.558C196.082 231.684 196.115 231.98 196.135 232.133C196.172 232.413 196.301 232.526 196.586 232.549C196.613 232.552 196.922 232.563 196.888 232.529C196.8 232.441 196.612 232.364 196.515 232.319C195.978 232.066 195.42 231.845 194.848 231.679C194.477 231.572 195.055 231.789 195.075 231.797C195.524 231.964 195.978 232.119 196.443 232.238C197.593 232.533 198.801 232.677 199.984 232.764C200.332 232.79 201.381 232.808 201.032 232.808C199.967 232.808 198.903 232.763 197.839 232.774C197.486 232.778 197.129 232.778 196.779 232.827C196.608 232.85 196.616 232.873 196.793 232.881C197.926 232.937 199.063 232.918 200.198 232.918C200.979 232.918 201.76 232.918 202.541 232.918C202.83 232.918 202.142 232.958 202.08 232.962C201.684 232.986 201.269 232.948 200.878 232.999C200.29 233.075 202.063 233.074 202.654 233.047C203.765 232.998 204.856 232.821 205.955 232.669C206.131 232.644 206.638 232.658 206.481 232.574C206.332 232.494 205.971 232.553 205.819 232.562C205.134 232.601 204.412 232.7 203.743 232.857C203.196 232.985 204.868 232.91 205.428 232.877C206.477 232.815 207.524 232.71 208.575 232.699C208.644 232.698 208.89 232.699 208.66 232.699C208.324 232.699 207.988 232.697 207.652 232.707C207.12 232.723 205.535 232.92 206.062 232.845C206.579 232.771 207.101 232.633 207.6 232.481C207.656 232.464 208.696 232.074 208.435 231.993C208.168 231.91 207.829 231.928 207.555 231.92C206.927 231.903 206.304 231.942 205.679 232.009C205.445 232.035 205.102 232.076 204.86 232.112C204.86 232.112 204.585 232.146 204.526 232.185C204.483 232.214 204.626 232.219 204.678 232.22C204.877 232.224 205.145 232.211 205.333 232.199C206.446 232.132 207.53 231.912 208.625 231.722C208.71 231.707 208.96 231.661 208.874 231.651C208.532 231.61 208.161 231.642 207.818 231.651C206.104 231.699 204.409 231.986 202.699 232.092C202.007 232.135 201.296 232.182 200.603 232.145C200.449 232.137 200.64 232.109 200.647 232.108C200.798 232.086 201.065 232.063 201.206 232.052C201.921 231.995 202.635 231.947 203.346 231.853C203.606 231.819 204.154 231.736 204.423 231.687C204.498 231.674 204.954 231.594 205.07 231.534C205.223 231.455 204.746 231.403 204.575 231.398C203.758 231.374 202.937 231.424 202.12 231.441C201.341 231.457 200.562 231.464 199.783 231.441C199.397 231.429 198.96 231.453 198.579 231.368C198.395 231.326 198.731 231.263 198.731 231.263C199.062 231.216 199.4 231.21 199.733 231.188C200.404 231.144 201.079 231.111 201.752 231.137C201.795 231.139 202.545 231.204 202.545 231.242C202.545 231.247 202.3 231.234 202.298 231.234C202.047 231.217 201.797 231.208 201.546 231.198C201.305 231.188 201.066 231.171 200.825 231.169C200.774 231.169 200.723 231.169 200.671 231.169C200.654 231.169 200.707 231.169 200.724 231.169C203.269 231.197 205.812 231.101 208.356 231.097C209.164 231.095 209.948 231.242 210.752 231.242C210.906 231.242 211.213 231.242 211.213 231.242C211.213 231.242 211.135 231.249 211.12 231.279" stroke="white"/>
<path d="M103.29 208V194.392L91.9082 178.39H98.1662L106.062 189.604L114 178.39H120.006L108.666 194.434V208H103.29ZM117.097 208L130.495 178.39H134.905L148.303 208H142.843L139.903 201.154H125.455L122.557 208H117.097ZM132.637 184.228L127.303 196.87H138.055L132.721 184.228H132.637ZM152.467 208V178.39H156.961L167.461 197.752L177.919 178.39H182.329V208H177.457V188.05L168.973 203.506H165.823L157.339 188.134V208H152.467ZM186.494 208L199.892 178.39H204.302L217.7 208H212.24L209.3 201.154H194.852L191.954 208H186.494ZM202.034 184.228L196.7 196.87H207.452L202.118 184.228H202.034ZM221.78 208V178.39H234.632C237.88 178.39 240.386 179.174 242.15 180.742C243.914 182.282 244.796 184.452 244.796 187.252C244.796 189.464 244.222 191.298 243.074 192.754C241.926 194.182 240.274 195.148 238.118 195.652C239.546 196.1 240.722 197.178 241.646 198.886L246.602 208H240.68L235.556 198.55C235.052 197.626 234.45 196.996 233.75 196.66C233.078 196.324 232.21 196.156 231.146 196.156H227.156V208H221.78ZM227.156 192.166H233.708C237.628 192.166 239.588 190.57 239.588 187.378C239.588 184.214 237.628 182.632 233.708 182.632H227.156V192.166ZM247.687 208L261.085 178.39H265.495L278.893 208H273.433L270.493 201.154H256.045L253.147 208H247.687ZM263.227 184.228L257.893 196.87H268.645L263.311 184.228H263.227ZM282.973 208V178.39H288.349V208H282.973ZM305.832 208.42C303.508 208.42 301.352 208.126 299.364 207.538C297.376 206.922 295.696 206.096 294.324 205.06L295.962 200.818C297.334 201.798 298.832 202.554 300.456 203.086C302.108 203.618 303.9 203.884 305.832 203.884C308.044 203.884 309.654 203.52 310.662 202.792C311.67 202.036 312.174 201.07 312.174 199.894C312.174 198.914 311.81 198.144 311.082 197.584C310.382 197.024 309.164 196.562 307.428 196.198L302.808 195.232C297.544 194.112 294.912 191.41 294.912 187.126C294.912 185.278 295.402 183.668 296.382 182.296C297.362 180.924 298.72 179.86 300.456 179.104C302.192 178.348 304.194 177.97 306.462 177.97C308.478 177.97 310.368 178.278 312.132 178.894C313.896 179.482 315.366 180.322 316.542 181.414L314.904 185.446C312.58 183.486 309.752 182.506 306.42 182.506C304.488 182.506 302.976 182.912 301.884 183.724C300.792 184.536 300.246 185.6 300.246 186.916C300.246 187.924 300.582 188.736 301.254 189.352C301.926 189.94 303.074 190.402 304.698 190.738L309.276 191.704C312.048 192.292 314.106 193.216 315.45 194.476C316.822 195.736 317.508 197.416 317.508 199.516C317.508 201.28 317.032 202.834 316.08 204.178C315.128 205.522 313.77 206.572 312.006 207.328C310.27 208.056 308.212 208.42 305.832 208.42Z" fill="white"/>
<path d="M171 152.5C146.37 125.931 128.904 124.433 95 147.857M95 147.857C92.8984 149.309 90.7336 150.857 88.5 152.5C62.7547 124.163 51.5418 77.4267 48.5 18C117.891 41.2854 138.838 54.3267 137.5 77.5M95 147.857C94.6831 141.896 94.5845 136.465 94.7383 131.5C95.6239 102.918 104.876 89.8214 129 80.4646C131.651 79.4365 134.481 78.4534 137.5 77.5M137.5 77.5C191.513 59.6098 219.174 61.8232 266 77.5M266 77.5C266.361 47.6819 298.494 37.2207 355.5 18.5C354.184 82.7281 344.296 110.917 316.5 152.5C314.212 150.874 311.993 149.324 309.836 147.857M266 77.5C269.591 78.7026 272.92 79.941 276 81.2458C298.8 90.904 307.999 104.198 309.606 133.5C309.848 137.909 309.918 142.681 309.836 147.857M234 152.5C261.336 122.836 279.482 127.204 309.836 147.857" stroke="white" stroke-width="3"/>
</g>
<defs>
<clipPath id="clip0_161_1239">
<rect width="406" height="292" fill="white"/>
</clipPath>
</defs>
</svg>
